<?xml version="1.0" encoding="UTF-8"?>
<!DOCTYPE svg PUBLIC "-//W3C//DTD SVG 1.0//EN" "http://www.w3.org/TR/2001/REC-SVG-20010904/DTD/svg10.dtd">
<!-- Creator: CorelDRAW 2021 (64-Bit) -->
<svg xmlns="http://www.w3.org/2000/svg" xml:space="preserve" width="37.3337mm" height="14.584mm" version="1.0" shape-rendering="geometricPrecision" text-rendering="geometricPrecision" image-rendering="optimizeQuality" fill-rule="evenodd" clip-rule="evenodd"
viewBox="0 0 1398.57 546.34"
 xmlns:xlink="http://www.w3.org/1999/xlink"
 xmlns:xodm="http://www.corel.com/coreldraw/odm/2003">
 <g id="Capa_x0020_1">
  <metadata id="CorelCorpID_0Corel-Layer"/>
  <g id="_1660776841024">
   <g id="_3155022640848">
    <path fill="white" d="M181.87 323.18l-20.21 0 0 -122.19c0,-5.83 7.83,-2.16 12.79,-2.16 5.36,0 10.63,0 15.98,0 22.7,0.16 61.54,-9.59 61.69,21.18 0.08,17.42 3.51,74.96 -1.44,89.02 -5.51,15.66 -18.14,14.23 -28.37,14.15 -6.07,0 -8.23,0.64 -12.79,1.04l-27.56 -1.04 -0.08 0zm50.99 -158.31l-57.37 0c-6.48,0 -7.75,-1.04 -13.83,-1.04l0 -118.99c9.51,0 14.79,-1.04 24.45,-1.04 9.83,0 47.71,-0.64 53.94,2.39 5.84,2.88 11.91,10.55 11.91,18.86l0 77.6c0,11.82 -7.6,22.29 -19.11,22.29l0.01 -0.07zm-192.35 194.51c0,2.47 0.72,3.2 3.2,3.2l266.75 0c14.87,0 37.97,-11.03 44.2,-19.58 9.99,-13.58 18.46,-21.73 18.46,-45.3l0 -59.53c0,-20.29 -6.48,-25.96 -16.7,-36.43 -9.99,-10.15 -16.22,-10.38 -25.09,-14.22 -4.47,-1.91 -6.96,-1.43 -8.14,-5.67 16.06,0 39.23,-16.54 45.71,-32.92 6.79,-17.18 4.24,-56.74 4.24,-78.64 0,-8.56 -0.79,-21.18 -2.8,-28.04 -1.2,-4.24 -2.95,-6 -5.03,-9.83 -2.39,-4.47 -3.67,-5.59 -6.63,-9.35 -1.68,-2.08 -1.6,-2.16 -3.36,-4.07l-3.51 -3.92c-2.88,-2.55 -6.39,-3.68 -10.22,-5.75 -8.08,-4.32 -11.34,-8.14 -23.74,-8.14l-277.37 0 0 358.17 0.04 0.05z"/>
    <path fill="white" d="M808.95 296.56l0 -251.89 27.65 -1.04c19.42,0 16.39,1.68 36.2,0.08 3.67,-0.31 43.47,-1.28 46.75,2.08 2.88,3.03 0.79,223.12 1.04,265.72 0,6 1.52,13.83 -4.24,13.83l-106.29 0c0,-10.87 -1.04,-17.66 -1.04,-28.69l-0.08 -0.09zm-16.78 -296.47l7.04 0 180.77 1.2c15.35,1.68 33.09,13.19 40.27,26.69 2.39,4.47 6.54,20.62 6.63,27.41l-0.08 203.06c-0.08,7.11 1.04,9.68 1.12,15.91 0.16,9.83 -0.64,38.68 -2.64,47.4 -0.79,3.28 -3.03,9.99 -4.47,12.55 -1.76,3.03 -1.76,2.32 -3.84,4.63 -2.24,2.55 -1.6,2.08 -3.28,5.19 -5.2,9.91 -22.14,16.54 -33.57,17.42 -5.03,0.4 -8.39,0.96 -14.94,0.96l-205.13 0c-8.79,0 -17.9,-1.52 -24.86,-3.84 -4.4,-1.43 -6.39,-1.6 -9.43,-4.4 -12.86,-11.59 -26.29,-20.21 -26.29,-43.87l0 -246.53c0,-17.42 0.4,-27.17 9.43,-39.48 6.87,-9.35 14.87,-16.54 27.41,-20.46 15.27,-4.71 28.21,-1.83 46.11,-2.8 4.24,-0.24 5.51,-0.87 9.83,-1.04l-0.08 0z"/>
    <path fill="white" d="M1177.67 161.67l0 -117.95 70.17 0c11.11,0 19.11,4.8 19.11,15.98l0 86.07c0,25.09 -23.49,19.11 -37.24,19.11 -6.15,0 -7.27,0.96 -12.71,1.12 -4.8,0.16 -10.07,0 -14.94,0 -6.15,0 -7.27,-1.04 -12.71,-1.12 -5.11,-0.08 -11.75,1.76 -11.75,-3.2l0.08 0zm-125.39 -134.97c0,30.61 1.35,161.18 -0.79,176.69 -1.2,8.55 -0.72,139.85 0.79,158.06 16.87,0 119.07,1.99 125.39,-1.04 2.48,-2.39 1.2,-82.47 1.04,-97.81 -0.08,-5.11 -0.79,-10.63 4.32,-10.63 19.58,0 74.8,-1.04 93.49,0 15.91,0.87 36.93,3.2 52.18,-2 12.23,-4.15 18.14,-8.71 25.96,-18.61 7.99,-10.22 11.11,-17.9 11.11,-33.57l0 -145.6c0,-15.91 -6.31,-21.97 -13.35,-32.36 -2.39,-3.6 -4.55,-5.44 -8.14,-7.6 -2.08,-1.28 -6.79,-3.84 -9.68,-5.44 -3.76,-1.99 -7.35,-3.76 -11.59,-4.4l-267.55 -1.28c-7.27,0 -3.2,15.58 -3.2,25.48l0.01 0.1z"/>
    <path fill="white" d="M408.27 27.74c0,-4.32 -0.56,-6.39 3.2,-6.39l102.04 0c5.03,0 3.2,8.23 3.2,17.03l0 274.19c0,37.56 5.44,33.96 -19.11,33.96 -2.88,0 -2.95,-0.48 -5.36,-1.04 -2,-8.47 0,-22.7 0,-33.96l0 -109.48c0,-6.31 -1.12,-10.15 -1.12,-16.94l0 -127.54c0,-29.16 7.19,-24.45 -27.65,-24.45 -18.06,0 -36.12,0 -54.18,0 -0.56,-2.39 -1.04,-2.47 -1.04,-5.36l0.01 -0.01zm-13.83 -26.54c-0.25,3.36 -1.04,3.76 -1.04,7.43 0,10.39 -1.2,25.49 1.04,35.08 5.51,0 74.08,-0.72 76,0.48 2.48,1.52 2.64,18.94 2.64,22.85 0,30.61 1.28,246.61 -0.79,261.71 -0.73,5.44 -0.25,11.19 -0.31,16.7 0,6.79 0.96,10.95 1.04,15.91 10.95,2.55 80.95,1.04 97.81,1.04 26.44,0 21.25,0.08 21.25,-20.21l0 -297.6c14.06,-3.28 68.88,0.48 74.24,-0.16 15.35,-1.68 12.94,2.95 12.94,-34.92 0,-3.84 -0.88,-5.92 -2.16,-8.47 -19.26,0 -34.84,-1.04 -54.18,-1.04l-138.17 0c-31.32,0 -59.05,1.04 -90.31,1.04l0.01 0.16z"/>
    <path fill="white" d="M92.6 482.6l-49.95 0 0 -31.88c0,-2.48 0.72,-3.2 3.2,-3.2l49.95 0c0,8.95 4.47,35.08 -3.2,35.08zm-92.45 49.22l0 -21.58c0,-18.78 1.68,-9.83 0.08,-29.81l-0.08 -31.8 0 -0.25 0 -0.24 0 -0.25c0,-4.55 0.25,-12.07 4.24,-12.07l115.88 0c15.35,0 19.11,4.96 19.11,20.21 0,8.08 -0.08,16.78 -3.12,23.41 -2.8,6 -5.2,6.63 -10.71,9.51 1.68,3.2 1.43,3.03 4.4,5.19 1.43,1.04 3.76,2.47 4.88,3.59 2.47,2.48 4.55,7.83 4.55,12.46 0,44.91 2.8,33.17 -13.5,35.33 -4.47,0.64 -8.71,0.79 -14.62,0.79l-0.31 0 -0.31 0c-19.58,0 -14.87,-3.28 -14.87,-26.53 0,-10.38 1.99,-21.25 -3.2,-21.25 -58.1,0 -49.95,-5.11 -49.95,20.21 0,8.14 0,16.3 0,24.45 -7.83,1.83 -19.82,0.64 -27.98,1.83 -4.4,0.64 -10.55,0.56 -12.54,-1.76 -1.21,-1.43 -1.83,-6.07 -2.08,-11.43l0.15 -0.04z"/>
    <path fill="white" d="M957.67 528.31c0,-9.19 -0.72,-10.39 1.04,-18.07l27.65 1.04 0 19.11c-8.14,1.91 -15.74,1.04 -25.48,1.04 -2.48,0 -3.2,-0.72 -3.2,-3.2l0 0.08zm-39.32 -52.11c0,11.51 -0.64,9.68 12.79,9.59 12.31,-0.08 22.78,1.91 27.41,-2.32 5.36,-5.03 4.63,-5.11 14.06,-5.11 3.43,0 6.39,0.96 8.64,1.99 5.44,2.64 4.15,5.03 4.15,14.94 0,4.07 -4.96,4.63 -9.43,4.24 -16.54,-1.36 -22.22,-1.04 -39.48,-1.04 -11.75,0 -17.82,1.91 -18.07,13.83 -0.56,29.08 -4.55,33.09 28.69,32.92 10.78,-0.08 19.11,1.04 30.84,1.04l0.56 0c11.34,0 19.65,-0.79 31.4,-1.04 11.19,-0.25 15.91,-6.96 15.91,-18.14l0 -45.71c0,-11.76 -6.96,-15.91 -17.99,-15.98l-51.07 0.08c-6.96,0.08 -10.63,-1.12 -15.91,-1.12 -3.11,0 -12.55,1.43 -14.87,2.24 -3.76,1.35 -7.51,4.24 -7.51,9.51l-0.14 0.07z"/>
    <path fill="white" d="M503.92 468.78l0 73.36c0,5.03 8.23,3.2 17.03,3.2 7.11,0 14.14,0 21.25,0 0.25,-3.36 1.04,-3.76 1.04,-7.43l0 -58.49c4.8,-0.08 4.24,-1.04 9.59,-1.04 9.26,0 11.34,-0.72 19.11,1.04l0 64.8c9.59,2.24 22.78,1.04 32.92,1.04 2.47,0 4.24,-1.76 4.24,-4.24l0 -59.53c0,-10.71 -4.63,-15.5 -14.87,-15.98l-63.85 0.08c-6,0 -26.53,-4.24 -26.53,3.2l0.07 -0.01z"/>
    <path fill="white" d="M331.71 487.87l0 13.83 -27.65 0c0,-25.26 -2.32,-23.57 11.67,-23.41 5.36,0.08 10.63,0 15.97,0 1.6,6.8 0,2.95 0,9.59l0 -0.01zm-66.97 -8.54l0 52.11c0,5.27 7.11,13.83 15.98,13.83l89.27 0 0 -12.79c-13.75,0 -55.38,1.35 -65.85,-1.04 0,-24.3 -6.63,-19.11 32.92,-19.11 30.45,0 33.96,2.88 33.96,-27.65 0,-8.79 -2.16,-19.11 -12.79,-19.11l-81.83 0c-7.43,0 -11.67,6.15 -11.67,13.83l0.01 -0.08z"/>
    <path fill="white" d="M1291.39 480.44c0,13.9 -2.08,20.85 5.44,26.53 8.47,6.4 38.12,3.28 55.23,3.28 3.68,0 4.08,0.79 7.44,1.04 0.64,7.75 2.39,9.99 0,20.21 -7.83,1.83 -20.85,1.83 -28.68,0 -0.88,-1.91 -1.91,-6.96 -2.16,-9.59l-29.8 -0.08c-8.15,-0.08 -7.35,-0.64 -7.35,9.68 0,8.08 8.71,13.83 17.03,13.83l66.97 0c25.97,0 22.29,-10.3 22.29,-34.04 0,-6.48 -5.67,-10.63 -11.19,-12.15 -3.84,-1.04 -6.96,-0.48 -11.19,-0.64 -1.83,-0.08 -4.47,-0.39 -5.59,-0.48l-34.77 0.48c-6.63,0 -4.24,-13.75 -4.24,-20.21 5.59,-1.28 20.77,-2.16 26.05,-0.56 8.79,2.64 -2.24,6.55 9.51,8.56 7.6,1.28 13.42,-0.56 21.81,-0.56l9.59 0c5.51,-22.93 -18.55,-19.98 -23.82,-20.77l-36.76 -0.48c-5.11,0 -7.27,0.96 -10.64,0.96 -10.63,0 -35.08,-6.87 -35.08,15.02l-0.07 0z"/>
    <path fill="white" d="M727.12 440.08l0 94.61c0,7.91 13.75,10.63 21.25,10.63l48.91 0c5.59,0 2.55,-7.99 2.16,-12.79 -6,0 -12.07,0 -18.07,0 -20.62,0 -15.97,9.51 -15.97,-55.29 10.38,0 25.48,1.2 35.08,-1.04l0 -10.63c-11.11,0 -28.6,1.52 -36.12,-2.16l0 -26.53c-4.24,-0.31 -2.55,-1.04 -5.36,-1.04 -6.96,0 -12.07,1.6 -17.9,0.96 -3.84,-0.48 -13.98,-2.64 -13.98,3.36l0 -0.08z"/>
    <path fill="white" d="M1133.08 441.12l0 99.89c0,2.47 0.72,3.2 3.2,3.2l34.04 0 0 -104.12c0,-2.47 -0.73,-3.2 -3.2,-3.2l-29.73 0c-2.47,0 -4.24,1.76 -4.24,4.24l-0.08 0z"/>
   </g>
  </g>
 </g>
</svg>
